PathFileType	4	(X/Y/Z)	C:/Users/beibeiliu/ov580/test_trc/User2\sequence.32_training_dense_right.trc
DataRate	CameraRate	NumFrames	NumMarkers	Units	OrigDataRate	OrigDataStartFrame	OrigNumFrames
120	120	22	19	mm	120	1	330
Frame#	Time	ThumbCMC			ThumbMCP			ThumbIP			ThumbTip			IndexMCP			IndexPIP			IndexTip			MiddleMCP			MiddlePIP			MiddleTip			RingMCP			RingPIP			RingTip			PinkyMCP			PinkyPIP			PinkyTip			BackHand1			BackHand2			BackHand3	
		X0	Y0	Z0	X1	Y1	Z1	X2	Y2	Z2	X3	Y3	Z3	X4	Y4	Z4	X5	Y5	Z5	X6	Y6	Z6	X7	Y7	Z7	X8	Y8	Z8	X9	Y9	Z9	X10	Y10	Z10	X11	Y11	Z11	X12	Y12	Z12	X13	Y13	Z13	X14	Y14	Z14	X15	Y15	Z15	X16	Y16	Z16	X17	Y17	Z17	X18	Y18	Z18	
0	0	43.521	-53.6746	77.0192	12.2854	-59.0481	63.2067	-11.6565	-68.1951	39.4098	-27.5792	-77.1721	23.9809	39.4638	-53.2725	-8.35835	28.5499	-60.0623	-36.6875	18.2177	-64.2488	-58.3259	70.0905	-53.2057	-21.4055	62.9723	-61.1452	-51.1828	63.2582	-71.2748	-82.8079	94.5081	-62.8166	-18.9862	95.8297	-70.4792	-45.0427	98.3194	-77.4873	-73.579	116.828	-71.661	-3.9086	124.945	-80.2383	-27.2472	132.614	-84.639	-47.7743	99.1846	-43.6707	35.2248	104.029	-31.2744	67.4298	67.5146	-33.9041	56.5112	
1	0.00833333	39.9259	-53.5248	72.3982	16.259	-60.1135	62.8293	-10.7548	-68.0369	37.4629	-30.1973	-76.7501	27.013	38.798	-53.898	-8.40233	25.8143	-58.5239	-35.9345	20.2889	-65.6128	-62.9144	65.9263	-53.1628	-20.1345	61.235	-62.0111	-55.2694	62.0529	-71.0471	-84.8848	91.3137	-62.5451	-21.4843	99.3799	-70.315	-42.3645	96.0868	-77.1446	-73.3709	115.487	-71.8581	-3.44646	124.812	-80.4748	-28.6565	128.423	-86.0083	-52.0993	98.1269	-44.0181	35.051	103.5	-32.1376	66.6631	65.6281	-33.2557	53.0136	
2	0.0166667	39.9577	-52.7288	77.6424	15.9845	-60.3256	60.1484	-11.9572	-67.4069	38.6444	-27.807	-76.1184	24.4489	39.0058	-53.7156	-9.03334	26.0963	-58.0995	-32.2306	21.685	-64.6529	-60.0981	65.1454	-54.0176	-25.2867	60.8703	-61.8991	-54.7654	62.0942	-71.5463	-86.1333	94.1424	-62.5037	-20.1987	95.1362	-69.9484	-42.3942	96.6932	-77.4967	-72.1062	115.525	-70.6668	-5.1563	124.083	-80.9047	-26.2128	128.172	-84.9796	-48.3694	98.7732	-43.9553	33.611	106.057	-31.8256	63.1082	67.9096	-32.4979	53.8634	
3	0.025	38.5317	-52.2677	74.6602	14.245	-58.9055	63.0679	-11.4143	-67.0117	36.6723	-30.2296	-76.005	24.271	37.603	-53.2176	-7.04976	25.411	-58.9789	-36.574	22.536	-64.7344	-62.1559	69.6648	-53.6189	-23.9864	64.9622	-62.3932	-56.4635	64.9509	-71.9382	-84.6419	92.8619	-61.5142	-22.1956	96.8969	-69.6679	-46.7008	95.7962	-77.5326	-73.0024	115.419	-70.577	-4.0572	122.522	-80.2542	-24.744	130.015	-85.664	-52.1868	96.2072	-41.9878	33.3752	105.247	-33.1504	66.104	63.8376	-33.7583	50.9373	
4	0.0333333	37.555	-51.5067	73.5079	15.2413	-59.07	61.772	-11.2377	-66.793	38.1725	-29.3796	-76.4721	23.3269	38.3957	-53.2406	-11.1688	26.261	-57.605	-33.5362	23.1448	-64.718	-61.3483	65.6782	-52.6103	-20.1156	62.9567	-62.5788	-55.9157	62.0933	-70.132	-82.8954	92.6172	-61.7106	-17.0957	94.1915	-69.93	-47.2264	96.257	-76.6071	-74.6936	116.935	-71.1829	-1.32728	123.749	-80.1147	-29.4887	130.022	-86.9001	-52.4035	97.5689	-42.47	36.5437	108.201	-31.5064	65.1423	69.9638	-33.5302	53.741	
5	0.0416667	38.0562	-52.8026	72.4021	16.9377	-60.2961	60.7525	-8.41802	-68.4044	41.8696	-27.2479	-77.0372	26.2068	36.1395	-53.8891	-8.8221	29.8444	-58.6315	-37.0053	16.6649	-64.0031	-62.7779	68.2639	-53.229	-20.784	66.0089	-61.4398	-53.0237	61.9335	-70.1454	-81.2576	91.7082	-62.1067	-20.7357	97.5378	-69.2763	-44.1494	94.2746	-77.1388	-70.6919	118.764	-71.7213	-4.86057	121.843	-79.6874	-26.2379	132.223	-85.688	-53.408	101.438	-44.3103	33.3221	105.099	-33.4139	63.0665	69.0293	-34.6381	49.9806	
6	0.05	40.3923	-53.8637	72.9332	13.7737	-58.8076	63.0813	-13.5461	-67.0131	40.4618	-30.6304	-77.0783	27.9518	37.2538	-54.06	-9.41475	24.6022	-58.476	-35.8832	22.0934	-64.563	-62.8332	65.2405	-52.6839	-21.6861	63.4891	-61.611	-52.8128	62.2758	-70.9931	-83.2504	95.7377	-61.8228	-20.8319	98.416	-69.6115	-44.384	97.6865	-76.9093	-70.7755	115.837	-71.1467	-2.5913	126.022	-81.4456	-27.9324	132.013	-86.7208	-53.6201	98.185	-42.1011	36.2846	103.002	-32.8627	65.6763	66.7201	-34.981	51.2038	
7	0.0583333	39.8914	-53.4461	77.6452	13.7627	-59.0547	62.9161	-12.2137	-67.4916	41.3073	-30.8858	-76.443	25.9985	34.9648	-53.1309	-9.00491	27.0262	-59.3781	-38.1288	18.892	-64.4244	-64.597	66.8532	-53.8984	-23.4286	63.3388	-62.2127	-54.1384	64.5495	-71.8468	-87.3735	95.9383	-62.9429	-21.1837	99.0293	-70.1459	-45.4685	94.4493	-76.17	-70.7062	115.939	-70.4639	-1.27289	122.339	-79.8451	-24.8973	132.215	-84.3903	-50.6158	96.5692	-41.6883	32.0917	103.723	-31.6054	67.3095	64.6554	-33.4786	54.5573	
8	0.0666667	41.392	-54.3697	72.3878	13.8991	-59.4264	63.5084	-9.62268	-67.9053	42.5275	-29.598	-77.1582	28.1722	36.669	-53.9985	-10.4582	26.0714	-58.0038	-35.9687	21.3703	-63.6789	-60.1728	67.6863	-53.1247	-22.1177	63.9756	-62.7337	-56.1497	62.4664	-70.1726	-80.9211	92.7381	-60.7028	-17.3009	95.6323	-69.3585	-42.4884	96.2492	-76.3158	-73.4949	117.469	-70.3742	-2.91328	121.75	-80.3979	-27.6247	132.761	-85.9017	-47.5381	101.142	-41.6763	33.1705	106.541	-32.8566	63.9912	68.459	-34.4762	55.0639	
9	0.075	40.3677	-52.5571	77.5009	13.6815	-60.0447	62.9115	-10.812	-67.3617	42.9004	-30.1711	-76.1454	26.2896	38.8437	-53.1913	-10.8867	25.69	-58.1964	-32.113	19.7953	-64.761	-62.4812	64.0652	-52.4856	-24.264	63.3421	-62.2001	-55.7266	61.1146	-69.1813	-81.6449	93.8649	-60.5232	-17.45	94.7016	-68.8643	-42.506	94.7604	-75.9454	-71.6879	119.735	-70.6744	-2.91723	123.16	-79.9348	-26.8997	128.519	-83.9014	-49.9911	96.6664	-43.3695	36.7998	106.299	-33.6843	63.0685	70.5265	-32.4611	55.0766	
10	0.0833333	42.396	-52.1643	73.8564	11.8374	-57.7013	61.42	-13.7089	-67.0218	41.9693	-29.5006	-76.6835	24.7906	38.0338	-51.9077	-6.60939	24.9635	-57.8035	-35.8094	23.613	-62.7706	-60.6364	67.1381	-52.6633	-23.3312	66.749	-60.0751	-52.2146	63.7118	-69.5311	-82.0084	95.8485	-60.8269	-20.7168	96.8912	-67.8935	-43.043	96.2849	-75.1066	-71.1472	120.413	-71.1414	-2.62655	122.971	-79.7034	-26.4985	130.055	-84.1769	-52.7012	97.7092	-41.9903	38.4906	106.066	-30.6493	67.0836	69.923	-33.9957	56.1437	
11	0.0916667	42.274	-51.8385	78.7141	17.8927	-58.0554	61.908	-12.0233	-65.8802	37.8158	-31.1489	-74.4423	23.8704	36.3873	-51.7694	-8.2552	28.0158	-56.6527	-35.5719	21.043	-63.1024	-62.3688	65.633	-51.2753	-19.4409	65.384	-59.4558	-53.2017	60.857	-67.8159	-81.9358	95.7658	-59.5049	-19.4952	98.5584	-67.5956	-42.3131	95.9029	-74.9686	-72.7299	116.283	-69.7046	-5.94132	124.935	-79.0292	-28.9321	131.76	-84.6832	-50.5749	99.7698	-42.2147	33.5869	105.836	-31.6112	66.3116	65.9274	-33.7105	53.2209	
12	0.1	40.188	-49.9441	78.2677	17.1617	-56.8388	61.8426	-8.97789	-64.8332	42.5317	-28.0291	-72.3469	27.524	35.5104	-48.7617	-9.89223	28.7179	-54.7149	-35.2076	19.5054	-60.7276	-57.3772	64.9558	-49.2845	-23.9875	66.9539	-58.9492	-55.2438	63.9173	-66.8816	-82.2012	94.6554	-58.2543	-20.4098	99.9648	-66.4285	-45.3704	94.5944	-71.7563	-72.2649	119.031	-67.6594	-5.05553	122.516	-77.0454	-27.7331	127.896	-83.0048	-51.2614	98.6479	-38.3434	35.2383	105.818	-31.2224	66.1648	67.4674	-29.5208	56.7292	
13	0.108333	43.7663	-49.8202	73.9928	16.3575	-56.4287	61.0709	-7.81479	-63.2616	40.1614	-27.6488	-71.6939	29.0913	40.4658	-47.9963	-8.53384	30.3768	-52.7061	-35.747	19.9957	-59.5366	-63.5963	70.8471	-47.028	-20.5927	67.17	-55.1756	-51.8371	64.2361	-64.8654	-85.1618	97.6025	-57.3746	-21.6682	94.1468	-64.3401	-43.4778	96.5509	-70.5949	-69.075	120.252	-66.0855	-1.91997	124.187	-76.9413	-29.5895	125.266	-82.0004	-49.6691	99.3381	-37.6025	38.1892	106.372	-29.5191	64.6929	67.3459	-27.9548	56.6049	
14	0.116667	41.8168	-48.4833	74.1094	13.7962	-54.73	63.9256	-9.2408	-62.5358	40.8318	-30.6683	-70.3058	24.3052	37.0794	-44.9502	-11.7059	29.8425	-51.3969	-38.3852	19.9277	-57.0769	-61.2457	65.9395	-45.6919	-22.0646	67.2974	-53.1058	-51.575	62.5732	-62.1668	-84.2495	97.9598	-55.6588	-20.5914	96.8546	-63.4399	-47.7183	94.2037	-71.3413	-74.6183	117.984	-65.0223	-3.09898	125.245	-74.6486	-27.2695	125.161	-84.0043	-54.451	102.633	-37.1722	35.9086	105.142	-27.3652	66.615	67.9065	-29.202	52.8639	
15	0.125	40.0728	-46.6655	73.914	15.6904	-55.22	62.1535	-10.4198	-62.8112	42.0996	-27.8965	-71.7652	27.4699	36.6236	-43.3823	-10.5988	26.6493	-49.821	-37.562	18.442	-54.8998	-61.2925	66.734	-44.3746	-24.4424	61.9675	-52.1442	-55.2156	60.2442	-60.0198	-82.7124	92.468	-54.1618	-21.9736	98.8212	-62.8694	-44.111	94.7626	-74.4085	-73.316	117.834	-63.9157	-4.75967	122.036	-76.313	-29.1309	120.316	-88.8228	-53.4315	104.111	-34.5351	36.3517	108.812	-26.1979	63.7207	69.1132	-27.5865	56.2297	
16	0.133333	43.9284	-47.8507	74.182	14.5705	-55.5868	61.883	-8.73621	-64.642	38.1281	-28.6912	-74.0344	25.9013	36.398	-42.6646	-11.1867	25.4503	-48.2798	-35.332	21.0552	-54.261	-63.9915	66.1606	-41.7418	-21.0075	62.4577	-50.5602	-52.3655	64.6886	-60.3616	-82.2698	92.4072	-53.3045	-17.8343	93.5238	-66.8022	-47.2606	88.6898	-82.9476	-72.8505	117.444	-63.5282	-3.34553	116.334	-81.5962	-32.1439	111.772	-100.607	-51.2658	102.298	-33.0739	37.0358	109.457	-24.797	67.214	70.5972	-26.967	57.175	
17	0.141667	40.7792	-46.857	73.2895	16.8285	-58.3056	58.3205	-10.1896	-67.562	42.9853	-27.2002	-76.9469	29.7304	38.6175	-42.0946	-12.2967	28.393	-47.3901	-36.8326	21.2679	-54.0965	-61.4511	68.2098	-42.4753	-24.5389	63.92	-50.9348	-56.3131	59.336	-60.1523	-84.2063	90.2425	-54.7173	-21.9143	92.9716	-73.7855	-48.6817	83.1372	-94.9126	-65.1042	113.732	-66.0685	-8.68138	112.69	-89.3944	-31.067	107.577	-113.629	-41.3659	103.473	-32.7217	35.5929	109.516	-24.3873	68.3784	67.6571	-26.233	57.0715	
18	0.15	39.6139	-47.1442	77.361	15.492	-59.958	59.5842	-10.8402	-71.6942	45.0584	-29.4667	-82.0064	30.3917	36.2697	-42.2424	-8.89637	28.4277	-46.998	-34.5797	22.2459	-54.4046	-64.9432	64.9272	-42.174	-25.4393	65.4191	-51.0096	-52.8891	63.8261	-63.2422	-85.8533	94.4978	-57.6198	-19.8719	89.739	-77.9659	-44.2154	78.8789	-111.462	-51.3497	113.234	-69.7299	-6.11372	106.567	-99.1955	-26.332	98.3749	-123.48	-23.9868	98.9263	-33.6726	33.6284	105.862	-27.5313	66.0763	70.2909	-25.9927	54.7847	
19	0.158333	39.2633	-49.2952	73.3943	17.5872	-63.8148	58.236	-6.81762	-77.2849	44.8391	-27.2877	-89.7735	31.045	37.9004	-44.4842	-7.71613	26.9156	-48.5297	-35.8217	18.2654	-55.7665	-60.7292	69.9793	-45.1108	-26.6097	64.9758	-54.5519	-56.3525	61.5257	-66.7216	-87.0089	91.4701	-65.7814	-24.575	84.1909	-91.4278	-40.3404	74.6888	-125.505	-29.707	110.308	-75.4617	-5.66482	104.152	-106.472	-19.0399	85.7299	-131.333	-7.69488	98.543	-35.3977	30.1669	107.792	-27.7251	61.388	71.6588	-27.143	55.3052	
20	0.166667	42.0839	-53.3252	69.7955	18.9382	-68.5099	62.0052	-10.4911	-84.7457	46.8095	-22.115	-98.6788	29.8402	41.0273	-46.4117	-12.2722	25.6706	-50.7726	-36.7286	18.3802	-59.3086	-62.6182	66.7191	-46.2838	-23.6565	65.3112	-55.8462	-55.1808	58.6456	-70.5893	-88.2708	88.8776	-72.1405	-24.1888	82.0104	-103.301	-33.1092	77.5864	-129.182	-13.5531	113.161	-83.1547	-8.04917	103.8	-113.448	-12.1278	87.6277	-134.284	7.36674	105.234	-36.4633	31.9196	110.791	-28.0042	62.2728	66.4991	-29.9325	49.8635	
21	0.175	39.7868	-55.7548	69.1919	19.1113	-75.6925	57.532	-9.06774	-93.1214	45.3921	-21.098	-108.591	34.2843	37.8668	-48.599	-15.6107	26.4365	-52.3581	-36.1497	17.8068	-62.5439	-67.2785	67.4166	-49.5333	-27.6332	60.7263	-60.4691	-59.2987	60.3377	-74.2772	-88.0468	90.6019	-79.6961	-24.4416	84.4868	-108.134	-27.5609	77.4208	-131.591	-0.769661	110.26	-89.2169	-9.23195	97.8552	-118.106	-5.57415	83.5056	-131.745	18.3314	99.6781	-37.4613	31.5268	108.747	-30.8783	61.5035	71.3893	-30.6589	51.0935	
